<?xml version='1.0' encoding='UTF-8'?>
<!DOCTYPE svg PUBLIC '-//W3C//DTD SVG 1.1//EN' 'http://www.w3.org/Graphics/SVG/1.1/DTD/svg11.dtd'>
<!-- Creator: CorelDRAW 2020 (64-Bit) -->
<svg style="shape-rendering:geometricPrecision; text-rendering:geometricPrecision; image-rendering:optimizeQuality; fill-rule:evenodd; clip-rule:evenodd" width="8.4666mm" xmlns:xodm="http://www.corel.com/coreldraw/odm/2003" xmlns:xlink="http://www.w3.org/1999/xlink" xmlns="http://www.w3.org/2000/svg" xml:space="preserve" viewBox="0 0 846.66 846.66" version="1.1" height="8.4666mm">
 <defs>
  <style type="text/css">&#xd;
    .str0 {stroke:#ffffff;stroke-width:48.4;stroke-miterlimit:22.9256}&#xd;
    .fil0 {fill:none}&#xd;
    .fil1 {fill:#ffffff;fill-rule:nonzero}&#xd;
   </style>
 </defs>
 <g id="Layer_x0020_1">
  <metadata id="CorelCorpID_0Corel-Layer"/>
  <g id="_3012440496064">
   <polygon points="24.14,24.14 822.55,24.14 822.55,822.55 24.14,822.55 " class="fil0 str0"/>
   <g>
    <path class="fil1" d="M239.63 262.79l0 38.64 -24.18 0 0 -38.64 12.09 -12.09 12.09 12.09zm-24.18 0l0 -12.09 12.09 0 -12.09 12.09zm278.71 12.09l-266.62 0 0 -24.18 266.62 0 12.09 12.09 -12.09 12.09zm0 -24.18l12.09 0 0 12.09 -12.09 -12.09zm-12.09 36.76l0 -24.67 24.18 0 0 24.67 0 0 -24.18 0zm0 100.14l0 -100.14 24.18 0 0 100.14 -12.09 12.09 -12.09 -12.09zm24.18 0l0 12.09 -12.09 0 12.09 -12.09zm-278.71 -12.09l266.62 0 0 24.18 -266.62 0 -12.09 -12.09 12.09 -12.09zm0 24.18l-12.09 0 0 -12.09 12.09 12.09zm12.09 -98.26l0 86.17 -24.18 0 0 -86.17 0 0 24.18 0zm8.44 260.6l0 -77.99 24.18 0 0 77.99 0 0.01 -24.18 -0.01zm-0.05 100.74l0.05 -100.75 24.18 0.02 -0.05 100.75 0 0.03 -24.18 -0.05zm24.18 0.02l0 0.04 0 -0.01 0 -0.03zm5.03 14.42l-14.44 19.4 0 0 -1.06 -0.82 -0.97 -0.8 -1.02 -0.9 -1.01 -0.97 -0.87 -0.92 -0.84 -0.93 -0.82 -1 -0.78 -1 -0.76 -1.08 -0.7 -1.07 -0.63 -1.04 -0.58 -1.05 -0.57 -1.11 -0.54 -1.16 -0.45 -1.07 -0.46 -1.16 -0.38 -1.13 -0.33 -1.01 -0.35 -1.21 -0.29 -1.19 -0.25 -1.1 -0.21 -1.07 -0.2 -1.14 -0.16 -1.14 -0.14 -1.09 -0.12 -1.09 -0.1 -1.09 -0.07 -1.16 -0.05 -1.11 -0.04 -1.05 -0.02 -1.11 0 -1.1 24.18 0.08 0 0.76 0.02 0.71 0.02 0.77 0.03 0.69 0.05 0.6 0.06 0.67 0.06 0.65 0.08 0.63 0.08 0.54 0.1 0.54 0.11 0.57 0.11 0.52 0.11 0.43 0.11 0.37 0.17 0.53 0.14 0.41 0.14 0.36 0.17 0.41 0.14 0.3 0.17 0.33 0.2 0.35 0.21 0.36 0.18 0.29 0.18 0.24 0.24 0.32 0.24 0.28 0.28 0.31 0.31 0.32 0.23 0.23 0.3 0.26 0.41 0.34 0.38 0.3 0 0zm21.22 3.21l0 24.18 0.01 0 -1.37 0 -1.24 0.01 -1.27 0.02 -1.27 0.01 -1.1 0.01 -1.11 0.02 -1.18 0.01 -1.08 0 -1.04 0 -1.08 -0.01 -1.05 -0.02 -1.09 -0.04 -1.09 -0.06 -0.98 -0.08 -1.13 -0.1 -1.13 -0.14 -1.09 -0.16 -1.17 -0.22 -1.07 -0.24 -1.12 -0.28 -1.18 -0.35 -1.15 -0.39 -1.12 -0.43 -1.11 -0.47 -1.1 -0.5 -1.08 -0.55 -1.11 -0.61 -1.04 -0.62 -0.99 -0.62 -1.07 -0.71 -1.03 -0.72 -1.03 -0.75 14.44 -19.4 0.65 0.47 0.59 0.42 0.51 0.33 0.55 0.34 0.46 0.28 0.35 0.19 0.38 0.19 0.32 0.16 0.31 0.13 0.3 0.11 0.27 0.09 0.24 0.07 0.32 0.08 0.37 0.08 0.31 0.06 0.41 0.06 0.41 0.06 0.47 0.04 0.64 0.04 0.61 0.04 0.65 0.02 0.77 0.02 0.8 0.01 0.92 0 0.96 0 0.96 -0.01 1.13 -0.02 1.22 -0.01 1.17 -0.01 1.29 -0.02 1.44 -0.01 1.43 0 0.01 0zm221.28 24.23l-221.28 -0.05 0 -24.18 221.28 0.05 0.14 0 -0.14 24.18zm0 -24.18l0.14 0 0 0 -0.14 0zm5.32 0.46l17.18 17.02 -0.38 0.37 -0.59 0.53 -0.5 0.44 -0.56 0.49 -0.64 0.52 -0.58 0.45 -0.76 0.56 -0.73 0.47 -0.64 0.4 -0.82 0.46 -0.93 0.47 -0.85 0.36 -0.84 0.32 -1.04 0.32 -0.83 0.21 -0.92 0.2 -0.94 0.14 -0.72 0.09 -0.72 0.06 -0.73 0.03 -0.72 0.02 -0.7 0 -0.57 -0.01 -0.58 -0.01 -0.57 -0.03 -0.6 -0.02 -0.52 -0.03 -0.56 -0.02 -0.58 -0.03 -0.53 -0.01 -0.68 -0.02 -0.63 -0.02 -0.68 -0.01 0.28 -24.18 0.88 0.01 0.83 0.02 0.72 0.02 0.77 0.03 0.64 0.03 0.6 0.02 0.58 0.03 0.44 0.02 0.39 0.01 0.34 0.01 0.31 0.01 0.12 0 0.08 0 0.01 -0.01 0 0 -0.02 0.01 -0.26 0.04 -0.28 0.06 -0.19 0.05 -0.4 0.12 -0.22 0.08 -0.23 0.1 -0.29 0.15 -0.18 0.1 0 0 -0.05 0.03 -0.08 0.06 0.14 -0.11 0.1 -0.08 0.22 -0.19 0.32 -0.28 0.27 -0.25 -0.38 0.37zm17.18 17.02l-0.22 0.22 -0.16 0.15 0.38 -0.37zm68.61 -69.26l-68.61 69.26 -17.18 -17.02 68.61 -69.26 1.16 -1.03 16.02 18.05zm-17.18 -17.02l0.55 -0.55 0.61 -0.48 -1.16 1.03zm22.07 -21.66l17.1 17.1 0 0 -0.6 0.61 -0.65 0.65 -0.58 0.59 -0.63 0.65 -0.64 0.66 -0.64 0.67 -0.69 0.72 -0.69 0.72 -0.69 0.72 -0.67 0.7 -0.73 0.77 -0.74 0.76 -0.71 0.74 -0.71 0.73 -0.74 0.77 -0.75 0.76 -0.74 0.76 -0.75 0.75 -0.71 0.72 -0.77 0.77 -0.77 0.76 -0.77 0.75 -0.78 0.75 -0.74 0.69 -0.75 0.71 -0.78 0.71 -0.75 0.69 -0.83 0.73 -0.77 0.66 -0.76 0.64 -0.84 0.69 -0.78 0.61 -14.86 -19.08 0.52 -0.41 0.48 -0.39 0.56 -0.48 0.59 -0.5 0.53 -0.47 0.61 -0.55 0.62 -0.57 0.63 -0.59 0.66 -0.63 0.64 -0.61 0.65 -0.63 0.65 -0.64 0.65 -0.65 0.71 -0.72 0.69 -0.69 0.68 -0.7 0.69 -0.7 0.68 -0.71 0.71 -0.73 0.71 -0.74 0.68 -0.7 0.67 -0.71 0.73 -0.76 0.69 -0.72 0.69 -0.72 0.67 -0.7 0.7 -0.73 0.7 -0.72 0.69 -0.71 0.72 -0.73 0.65 -0.65 0.66 -0.67 0 0zm9.58 -22.27l24.18 -0.06 0 0 0 2.11 0 2 -0.02 1.86 -0.02 1.74 -0.04 1.66 -0.06 1.56 -0.08 1.53 -0.11 1.47 -0.15 1.46 -0.19 1.36 -0.24 1.39 -0.32 1.45 -0.39 1.43 -0.48 1.41 -0.56 1.36 -0.67 1.38 -0.75 1.29 -0.8 1.21 -0.82 1.09 -0.82 0.99 -0.84 0.92 -0.83 0.84 -0.81 0.78 -0.78 0.72 -0.74 0.68 -0.82 0.74 -0.78 0.71 -0.79 0.72 -0.88 0.82 -0.93 0.86 -0.94 0.9 -1 0.99 -17.1 -17.1 1.24 -1.23 1.18 -1.12 1.05 -1 0.98 -0.9 0.95 -0.88 0.86 -0.75 0.7 -0.64 0.66 -0.6 0.54 -0.5 0.39 -0.38 0.29 -0.3 0.18 -0.2 0.1 -0.11 0.04 -0.05 -0.04 0.07 -0.05 0.07 -0.05 0.12 -0.02 0.02 0.02 -0.03 0.03 -0.13 0.06 -0.23 0.06 -0.45 0.09 -0.62 0.07 -0.7 0.07 -0.89 0.06 -1.05 0.04 -1.22 0.04 -1.38 0.02 -1.56 0.02 -1.72 0 -1.86 0 -2.05 0 0zm0 -89.31l24.18 0 0 0 0 2.79 0 2.79 0 2.79 0 2.79 0 2.81 -0.01 2.79 0 2.77 0 2.79 0 2.81 -0.01 2.79 0 2.77 0 2.79 0 2.81 -0.01 2.79 0 2.77 0 2.79 0 2.79 0 2.79 0 2.81 -0.01 2.79 0 2.77 0 2.77 0.01 2.79 0 2.81 0 2.79 0 2.79 0 2.77 0.01 2.79 0 2.79 0.01 2.79 0 2.79 0.01 2.78 -24.18 0.06 -0.01 -2.8 0 -2.79 -0.01 -2.79 0 -2.79 -0.01 -2.79 0 -2.81 0 -2.79 0 -2.79 0 -2.77 -0.01 -2.79 0 -2.81 0 -2.81 0.01 -2.79 0 -2.77 0 -2.79 0 -2.79 0 -2.79 0 -2.81 0.01 -2.79 0 -2.77 0 -2.79 0 -2.81 0.01 -2.79 0 -2.77 0 -2.79 0 -2.81 0.01 -2.79 0 -2.77 0 -2.79 0 -2.79 0 -2.79 0 -2.79 0 0zm24.18 -119.83l0 119.83 -24.18 0 0 -119.83 0 0 24.18 0zm-25.31 -181.3l23.52 -5.66 0 0 0.5 2.83 0.31 2.84 0.25 3.37 0.2 3.87 0.19 4.42 0.15 4.95 0.14 5.43 0.11 5.88 0.1 6.28 0.08 6.64 0.06 6.95 0.05 7.21 0.04 7.42 0.02 7.61 0.01 7.72 0 7.8 -0.01 7.82 -0.01 7.79 -0.02 7.74 -0.03 7.62 -0.03 7.46 -0.04 7.24 -0.04 6.97 -0.04 6.67 -0.03 6.31 -0.04 5.93 -0.04 5.44 -0.03 4.94 -0.02 4.41 -0.02 3.82 -0.02 3.14 0 2.44 -24.18 0 0 -2.52 0.02 -3.2 0.02 -3.8 0.02 -4.41 0.03 -4.98 0.04 -5.46 0.04 -5.89 0.03 -6.31 0.04 -6.67 0.04 -6.97 0.04 -7.22 0.03 -7.44 0.03 -7.6 0.02 -7.7 0.01 -7.79 0.01 -7.8 0 -7.76 -0.01 -7.7 -0.02 -7.55 -0.04 -7.38 -0.05 -7.17 -0.06 -6.87 -0.08 -6.56 -0.1 -6.2 -0.11 -5.76 -0.14 -5.29 -0.15 -4.75 -0.17 -4.18 -0.18 -3.49 -0.21 -2.71 -0.19 -1.82 -0.04 -0.35 0 0zm-42.09 -10.63l0 -24.18 0 0 1.58 -0.02 1.71 -0.05 1.82 -0.06 1.86 -0.08 1.92 -0.1 2.04 -0.1 2.08 -0.09 2.14 -0.09 2.18 -0.06 2.23 -0.03 2.29 0 2.31 0.05 2.29 0.11 2.38 0.16 2.41 0.26 2.43 0.35 2.43 0.46 2.44 0.57 2.48 0.73 2.48 0.89 2.45 1.06 2.38 1.24 2.4 1.47 2.3 1.71 2.18 1.9 2.05 2.14 1.87 2.34 1.71 2.55 1.5 2.74 1.29 2.88 1.09 3.03 0.89 3.19 -23.52 5.66 -0.43 -1.55 -0.47 -1.33 -0.51 -1.14 -0.52 -0.94 -0.53 -0.79 -0.57 -0.7 -0.57 -0.6 -0.64 -0.56 -0.66 -0.49 -0.74 -0.45 -0.9 -0.46 -0.95 -0.42 -1.04 -0.37 -1.16 -0.33 -1.3 -0.31 -1.39 -0.26 -1.47 -0.21 -1.53 -0.16 -1.64 -0.12 -1.75 -0.07 -1.77 -0.05 -1.81 0 -1.87 0.03 -1.9 0.06 -1.94 0.07 -1.96 0.09 -1.96 0.1 -2.04 0.1 -2.02 0.08 -2 0.08 -2.01 0.05 -2.04 0.02 0 0zm-224.07 0l0 -24.18 0 0 7 0 7 0 7.01 0 7 0 7 0 7 0 7.01 0 7 0 7 0 7 0 7 0 7.01 0 7 0 7 0 7 0 7.01 0 7 0 7 0 7 0 7 0 7.01 0 7 0 7 0 7 0 7 0 7.01 0 7 0 7 0 7 0 7.01 0 7 0 7 0 0 24.18 -7 0 -7 0 -7.01 0 -7 0 -7 0 -7 0 -7.01 0 -7 0 -7 0 -7 0 -7 0 -7.01 0 -7 0 -7 0 -7 0 -7 0 -7.01 0 -7 0 -7 0 -7 0 -7.01 0 -7 0 -7 0 -7 0 -7 0 -7.01 0 -7 0 -7 0 -7 0 -7.01 0 -7 0 -7 0 0 0zm-73.25 -0.08l-1.14 -24.16 0 0 2.28 -0.1 2.3 -0.09 2.3 -0.07 2.31 -0.06 2.31 -0.05 2.35 -0.04 2.34 -0.03 2.33 -0.02 2.37 -0.02 2.37 0 2.37 0 2.35 0.01 2.38 0.01 2.4 0.02 2.35 0.03 2.36 0.02 2.4 0.03 2.36 0.04 2.36 0.03 2.35 0.04 2.35 0.03 2.37 0.04 2.31 0.04 2.33 0.03 2.33 0.04 2.29 0.03 2.28 0.03 2.27 0.02 2.28 0.02 2.23 0.02 2.2 0.01 2.21 0 0 24.18 -2.27 0 -2.3 -0.01 -2.29 -0.02 -2.28 -0.02 -2.31 -0.02 -2.34 -0.03 -2.33 -0.03 -2.33 -0.04 -2.33 -0.03 -2.37 -0.04 -2.31 -0.04 -2.35 -0.03 -2.35 -0.04 -2.36 -0.03 -2.36 -0.04 -2.3 -0.03 -2.36 -0.02 -2.35 -0.03 -2.3 -0.02 -2.32 -0.01 -2.31 -0.01 -2.31 0 -2.27 0 -2.27 0.02 -2.27 0.02 -2.24 0.03 -2.23 0.04 -2.21 0.05 -2.19 0.06 -2.18 0.07 -2.14 0.07 -2.12 0.1 0 0zm-12.75 19.68l-24.16 -1.22 0 0 0.09 -1.56 0.12 -1.59 0.15 -1.63 0.19 -1.6 0.21 -1.64 0.27 -1.68 0.31 -1.67 0.36 -1.65 0.42 -1.69 0.48 -1.69 0.52 -1.67 0.61 -1.68 0.69 -1.73 0.78 -1.67 0.83 -1.62 0.95 -1.66 1.05 -1.62 1.19 -1.62 1.27 -1.53 1.33 -1.43 1.5 -1.44 1.65 -1.37 1.72 -1.23 1.78 -1.12 1.89 -1.03 2.02 -0.93 2.11 -0.79 2.12 -0.66 2.19 -0.54 2.29 -0.41 2.3 -0.29 2.38 -0.18 1.14 24.16 -1.12 0.08 -1.04 0.13 -0.89 0.17 -0.81 0.2 -0.74 0.22 -0.59 0.23 -0.54 0.25 -0.51 0.27 -0.48 0.3 -0.42 0.31 -0.35 0.29 -0.36 0.34 -0.41 0.45 -0.37 0.43 -0.31 0.44 -0.35 0.54 -0.33 0.56 -0.35 0.7 -0.32 0.69 -0.29 0.71 -0.29 0.82 -0.28 0.87 -0.26 0.91 -0.22 0.95 -0.22 1.01 -0.19 1.03 -0.17 1.04 -0.15 1.1 -0.13 1.16 -0.11 1.13 -0.08 1.15 -0.07 1.2 0 0zm-11.86 70.18l0 -24.18 -12.09 12.09 0 -0.49 -0.01 -0.82 0 -0.98 -0.02 -1.19 -0.01 -1.46 -0.01 -1.53 -0.02 -1.71 -0.02 -1.86 -0.02 -1.99 -0.02 -2.11 -0.02 -2.19 -0.02 -2.28 -0.02 -2.31 -0.03 -2.39 -0.02 -2.46 -0.02 -2.45 -0.02 -2.49 -0.01 -2.45 -0.02 -2.42 -0.01 -2.43 -0.01 -2.34 -0.01 -2.28 -0.01 -2.22 0 -2.14 0 -2.02 0.01 -1.88 0 -1.78 0.02 -1.67 0.02 -1.44 0.02 -1.32 0.03 -1.16 0.04 -1.05 24.16 1.22 -0.02 0.61 -0.03 0.92 -0.02 1.14 -0.02 1.4 -0.02 1.49 0 1.7 -0.01 1.88 0 1.96 0 2.08 0.01 2.18 0.01 2.28 0.01 2.34 0.01 2.37 0.02 2.44 0.01 2.45 0.02 2.43 0.02 2.45 0.02 2.4 0.03 2.39 0.02 2.37 0.02 2.26 0.02 2.19 0.02 2.09 0.02 1.97 0.02 1.86 0.02 1.75 0.01 1.59 0.01 1.34 0.02 1.25 0 1.06 0.01 0.78 0 0.67 -12.09 12.09zm12.09 -12.09l0 12.09 -12.09 0 12.09 -12.09zm-63.14 -12.09l51.05 0 0 24.18 -51.05 0 -12.09 -12.09 12.09 -12.09zm-12.09 12.09l0 -12.09 12.09 0 -12.09 12.09zm0 57.11l0 -57.11 24.18 0 0 57.11 0 0 -24.18 0zm-0.01 86.13l0.01 -86.13 24.18 0 -0.01 86.13 0 0.03 -24.18 -0.03zm24.18 0l0 0.03 0 0 0 -0.03zm2.63 13.95l-15.96 18.18 0.14 0.12 -0.91 -0.78 -0.87 -0.77 -0.83 -0.75 -0.81 -0.77 -0.8 -0.79 -0.77 -0.81 -0.74 -0.82 -0.76 -0.92 -0.72 -0.96 -0.71 -1.05 -0.66 -1.12 -0.63 -1.23 -0.47 -1.11 -0.47 -1.27 -0.35 -1.25 -0.27 -1.16 -0.21 -1.25 -0.12 -1.06 -0.09 -1.06 -0.05 -1.05 -0.01 -0.95 0 -0.9 0.01 -1 0.03 -0.95 0.03 -0.85 0.03 -0.98 0.04 -0.97 0.03 -0.99 0.03 -1.11 0.03 -1.15 0.02 -1.19 0.01 -1.26 24.18 0.06 -0.01 1.48 -0.02 1.39 -0.03 1.29 -0.03 1.15 -0.03 1.15 -0.04 1.03 -0.03 0.9 -0.03 0.91 -0.03 0.69 -0.01 0.56 0 0.56 0.01 0.41 0.01 0.25 0.01 0.18 0.02 0.1 -0.03 -0.13 -0.01 -0.08 -0.07 -0.21 -0.09 -0.27 -0.05 -0.11 -0.13 -0.25 -0.08 -0.14 -0.05 -0.07 0.02 0.02 0.08 0.1 0.2 0.22 0.27 0.29 0.34 0.33 0.43 0.41 0.55 0.49 0.61 0.55 0.71 0.6 0.14 0.12zm-0.14 -0.12l0.11 0.09 0.03 0.03 -0.14 -0.12zm15.14 45.49l-30.96 -27.19 15.96 -18.18 30.96 27.19 -15.37 18.66 -0.59 -0.48zm0.59 0.48l-0.36 -0.28 -0.23 -0.2 0.59 0.48zm32.84 36.64l-24.18 0 0 0 0.02 -2.83 0.04 -2.64 0.06 -2.5 0.09 -2.36 0.09 -2.18 0.09 -2.03 0.09 -1.92 0.09 -1.77 0.08 -1.59 0.05 -1.41 0.03 -1.29 0.01 -1.2 -0.02 -0.95 -0.04 -0.8 -0.07 -0.72 -0.08 -0.58 -0.08 -0.47 -0.08 -0.33 -0.09 -0.26 -0.1 -0.27 -0.13 -0.25 -0.17 -0.3 -0.26 -0.39 -0.34 -0.47 -0.47 -0.56 -0.61 -0.66 -0.74 -0.75 -0.9 -0.84 -1.06 -0.94 -1.24 -1.05 -1.37 -1.11 -1.55 -1.22 14.78 -19.14 1.85 1.44 1.73 1.41 1.62 1.37 1.54 1.36 1.46 1.38 1.4 1.41 1.29 1.42 1.25 1.5 1.16 1.55 1.06 1.61 0.97 1.7 0.85 1.77 0.72 1.79 0.59 1.82 0.46 1.83 0.34 1.75 0.24 1.74 0.15 1.7 0.1 1.72 0.02 1.71 -0.01 1.62 -0.03 1.67 -0.07 1.73 -0.08 1.75 -0.09 1.77 -0.09 1.84 -0.09 1.97 -0.09 2.06 -0.07 2.14 -0.06 2.28 -0.04 2.42 -0.02 2.55 0 0zm18.44 -5.64l0 87.88 -24.18 0 0 -87.88 0 0 24.18 0zm0 -72.37l0 72.37 -24.18 0 0 -72.37 12.09 -12.09 12.09 12.09zm-24.18 0l0 -12.09 12.09 0 -12.09 12.09zm50.38 12.09l-38.29 0 0 -24.18 38.29 0 12.09 12.09 -12.09 12.09zm0 -24.18l12.09 0 0 12.09 -12.09 -12.09zm-12.09 84.5l0 -72.41 24.18 0 0 72.41 0 0 -24.18 0zm0 116.81l0 -116.81 24.18 0 0 116.81 0 0 -24.18 0zm0 80.24l0 -80.24 24.18 0 0 80.24 -12.09 12.09 -12.09 -12.09zm24.18 0l0 12.09 -12.09 0 12.09 -12.09zm-33.29 12.13l-0.22 -24.18 0.01 0 0.68 -0.01 0.75 0 0.58 0 0.66 -0.01 0.67 0 0.66 -0.01 0.76 0 0.67 0 0.57 0 0.67 -0.01 0.75 0 0.67 0 0.66 0 0.67 0 0.67 0 0.66 0 0.67 0 0.66 0 0.67 0 0.66 0 0.67 0 0.67 0 0.66 0 0.67 0 0.67 0 0.66 0 0.67 0 0.66 0 0.67 0 0.67 0 0.66 0 0.67 0 0 24.18 -0.67 0 -0.66 0 -0.67 0 -0.67 0 -0.66 0 -0.67 0 -0.66 0 -0.67 0 -0.67 0 -0.66 0 -0.67 0 -0.67 0 -0.66 0 -0.67 0 -0.66 0 -0.67 0 -0.66 0 -0.67 0 -0.67 0 -0.66 0 -0.67 0 -0.57 0 -0.67 0.01 -0.75 0 -0.67 0 -0.58 0 -0.66 0.01 -0.67 0 -0.66 0.01 -0.76 0 -0.57 0 -0.66 0.01 0.01 0zm-29.18 -16.38l24.18 0 -5.36 -10.05 0.62 0.41 0.6 0.41 0.52 0.35 0.35 0.24 0.46 0.3 0.37 0.25 0.2 0.12 0.18 0.11 0.21 0.11 0.11 0.07 0.01 0 -0.03 -0.01 -0.09 -0.04 -0.05 -0.01 -0.26 -0.09 -0.19 -0.05 0 0 0.01 0 0.07 0.01 0.09 0.01 0.15 0.02 0.2 0.01 0.27 0.02 0.34 0.01 0.51 0.01 0.65 0.01 0.62 0.01 0.6 0 0.83 -0.01 0.88 0 0.89 -0.01 1.02 -0.01 0.22 24.18 -1 0.01 -0.99 0.01 -0.88 0 -0.81 0.01 -0.92 0 -0.82 -0.01 -0.67 -0.01 -0.73 -0.01 -0.82 -0.03 -0.81 -0.04 -0.8 -0.07 -0.81 -0.08 -0.79 -0.11 -0.79 -0.13 -0.79 -0.16 -0.78 -0.18 -0.93 -0.25 -0.98 -0.33 -0.77 -0.29 -0.81 -0.34 -0.73 -0.35 -0.71 -0.36 -0.63 -0.35 -0.57 -0.33 -0.6 -0.37 -0.64 -0.4 -0.49 -0.33 -0.48 -0.3 -0.63 -0.42 -0.54 -0.37 -0.52 -0.35 -0.58 -0.39 -5.36 -10.05zm5.36 10.05l-5.36 -3.59 0 -6.46 5.36 10.05zm18.82 -115.01l0 104.96 -24.18 0 0 -104.96 0 0 24.18 0zm55.31 -87.84l0 116.81 -24.18 0 0 -116.81 0 0 24.18 0zm0 -72.41l0 72.41 -24.18 0 0 -72.41 12.09 -12.09 12.09 12.09zm-24.18 0l0 -12.09 12.09 0 -12.09 12.09zm189.36 12.09l-177.27 0 0 -24.18 177.27 0 12.09 12.09 -12.09 12.09zm12.09 -12.09l0 12.09 -12.09 0 12.09 -12.09zm0 -118.57l0 118.57 -24.18 0 0 -118.57 0 0 24.18 0zm0 -43.1l0 43.1 -24.18 0 0 -43.1 12.09 -12.09 12.09 12.09zm-12.09 -12.09l12.09 0 0 12.09 -12.09 -12.09zm-177.27 0l177.27 0 0 24.18 -177.27 0 -12.09 -12.09 12.09 -12.09zm0 24.18l-12.09 0 0 -12.09 12.09 12.09zm12.09 -22.61l0 10.52 -24.18 0 0 -10.52 0 0 24.18 0zm0 -62.25l0 62.25 -24.18 0 0 -62.25 12.09 -12.09 12.09 12.09zm-24.18 0l0 -12.09 12.09 0 -12.09 12.09zm229.07 -12.09l0 24.18 0 0 -6.78 0 -6.78 0 -6.78 0 -6.78 0 -6.78 0 -6.79 0 -6.78 0 -6.78 0 -6.78 0 -6.78 0 -6.78 0 -6.78 0 -6.78 0 -6.78 0 -6.78 0 -6.78 0 -6.78 0 -6.79 0 -6.78 0 -6.78 0 -6.78 0 -6.78 0 -6.78 0 -6.78 0 -6.78 0 -6.78 0 -6.78 0 -6.78 0 -6.78 0 -6.78 0 -6.78 0 -6.78 0 0 -24.18 6.78 0 6.78 0 6.78 0 6.78 0 6.78 0 6.78 0 6.78 0 6.78 0 6.78 0 6.78 0 6.78 0 6.78 0 6.78 0 6.78 0 6.79 0 6.78 0 6.78 0 6.78 0 6.78 0 6.78 0 6.78 0 6.78 0 6.78 0 6.78 0 6.78 0 6.78 0 6.79 0 6.78 0 6.78 0 6.78 0 6.78 0 6.78 0 0 0zm80.16 90.53l-24.18 0 0 0 0.03 -7.95 0.07 -7.39 0.09 -6.85 0.1 -6.32 0.09 -5.79 0.05 -5.28 0.01 -4.79 -0.06 -4.27 -0.13 -3.78 -0.21 -3.23 -0.3 -2.73 -0.36 -2.17 -0.41 -1.63 -0.38 -1.09 -0.28 -0.56 -0.19 -0.27 -0.13 -0.14 -0.2 -0.15 -0.52 -0.27 -0.96 -0.36 -1.49 -0.39 -2.08 -0.38 -2.61 -0.31 -3.1 -0.24 -3.62 -0.14 -4.13 -0.08 -4.62 -0.01 -5.12 0.03 -5.61 0.05 -6.12 0.07 -6.64 0.05 -7.15 0.02 0 -24.18 7.03 -0.02 6.54 -0.05 6.1 -0.07 5.67 -0.05 5.26 -0.03 4.9 0.01 4.59 0.08 4.3 0.18 4.06 0.3 3.85 0.47 3.72 0.68 3.65 0.97 3.58 1.38 3.44 1.85 3.24 2.41 2.81 2.9 2.31 3.27 1.78 3.52 1.28 3.59 0.93 3.67 0.64 3.79 0.44 3.93 0.27 4.15 0.15 4.4 0.06 4.71 -0.01 5.05 -0.05 5.44 -0.09 5.87 -0.1 6.3 -0.09 6.77 -0.07 7.27 -0.03 7.79 0 0zm0 108.53l-24.18 0 0 0 0 -3.39 0 -3.39 0 -3.4 0 -3.39 0 -3.39 0 -3.39 0 -3.39 0 -3.39 0 -3.39 0 -3.4 0 -3.39 0 -3.39 0 -3.39 0 -3.39 0 -3.39 0 -3.4 0 -3.39 0 -3.39 0 -3.39 0 -3.39 0 -3.39 0 -3.39 0 -3.4 0 -3.39 0 -3.39 0 -3.39 0 -3.39 0 -3.39 0 -3.39 0 -3.4 0 -3.39 0 -3.39 24.18 0 0 3.39 0 3.39 0 3.4 0 3.39 0 3.39 0 3.39 0 3.39 0 3.39 0 3.39 0 3.4 0 3.39 0 3.39 0 3.39 0 3.39 0 3.39 0 3.39 0 3.4 0 3.39 0 3.39 0 3.39 0 3.39 0 3.39 0 3.4 0 3.39 0 3.39 0 3.39 0 3.39 0 3.39 0 3.39 0 3.4 0 3.39 0 3.39 0 0zm-24.18 119.88l0 -119.88 24.18 0 0 119.88 0 0 -24.18 0zm0 94.94l0 -94.94 24.18 0 0 94.94 -12.09 12.09 -12.09 -12.09zm24.18 0l0 12.09 -12.09 0 12.09 -12.09zm-85.95 12.03l0.12 -24.18 0 0 2.3 0.01 2.3 0.01 2.31 0.01 2.31 0.01 2.28 0.01 2.31 0 2.3 0.01 2.31 0 2.31 0.01 2.27 0 2.34 0 2.31 0.01 2.27 0 2.31 0 2.3 0 2.31 0 2.31 0 2.3 0 2.31 0 2.28 0 2.3 -0.01 2.34 0 2.3 0 2.31 0 2.31 0 2.27 0 2.31 -0.01 2.34 0 2.3 0 2.31 0 2.3 0 2.31 0 0 24.18 -2.31 0 -2.3 0 -2.31 0 -2.3 0 -2.28 0 -2.31 0.01 -2.33 0 -2.31 0 -2.31 0 -2.3 0 -2.28 0 -2.3 0.01 -2.34 0 -2.31 0 -2.3 0 -2.31 0 -2.31 0 -2.3 0 -2.31 0 -2.33 0 -2.31 -0.01 -2.28 0 -2.33 0 -2.31 -0.01 -2.31 0 -2.3 -0.01 -2.31 0 -2.32 -0.01 -2.31 -0.01 -2.31 -0.01 -2.3 -0.01 -2.32 -0.01 0 0zm-14.01 6.65l-20.68 -12.54 0 0 0.73 -1.17 0.74 -1.1 0.8 -1.13 0.87 -1.12 0.82 -0.99 0.87 -0.99 0.94 -0.99 0.94 -0.93 0.98 -0.89 1.05 -0.89 1.05 -0.8 1.07 -0.77 1.11 -0.73 1.04 -0.63 1.16 -0.65 1.2 -0.61 1.15 -0.52 1.16 -0.49 1.24 -0.47 1.17 -0.39 1.22 -0.37 1.23 -0.32 1.16 -0.27 1.25 -0.26 1.25 -0.21 1.2 -0.17 1.26 -0.15 1.21 -0.11 1.22 -0.08 1.24 -0.06 1.23 -0.03 1.25 0 -0.12 24.18 -0.77 0 -0.73 0.03 -0.72 0.02 -0.68 0.06 -0.67 0.05 -0.58 0.07 -0.62 0.09 -0.53 0.09 -0.51 0.1 -0.54 0.13 -0.47 0.12 -0.42 0.13 -0.45 0.15 -0.36 0.13 -0.4 0.17 -0.39 0.18 -0.3 0.15 -0.3 0.17 -0.4 0.25 -0.31 0.19 -0.31 0.23 -0.31 0.24 -0.27 0.23 -0.32 0.29 -0.32 0.31 -0.3 0.31 -0.33 0.39 -0.38 0.45 -0.29 0.38 -0.32 0.45 -0.36 0.54 -0.35 0.55 0 0zm-2.15 26.44l-24.18 0 0 0 0 -1.18 -0.02 -1.17 -0.02 -1.22 -0.02 -1.17 -0.03 -1.13 -0.03 -1.17 -0.03 -1.19 -0.02 -1.13 -0.03 -1.12 -0.02 -1.19 -0.01 -1.19 0 -1.12 0 -1.17 0.02 -1.2 0.03 -1.15 0.05 -1.19 0.08 -1.24 0.1 -1.23 0.13 -1.23 0.15 -1.22 0.19 -1.27 0.23 -1.26 0.26 -1.25 0.31 -1.29 0.36 -1.31 0.42 -1.33 0.45 -1.26 0.5 -1.28 0.59 -1.33 0.6 -1.25 0.68 -1.28 0.73 -1.26 20.68 12.54 -0.27 0.46 -0.24 0.46 -0.24 0.49 -0.19 0.43 -0.18 0.48 -0.19 0.52 -0.14 0.45 -0.14 0.51 -0.13 0.53 -0.12 0.59 -0.11 0.6 -0.09 0.61 -0.09 0.68 -0.07 0.71 -0.06 0.71 -0.04 0.74 -0.03 0.81 -0.03 0.89 -0.02 0.86 0 0.93 0 1 0.01 0.97 0.02 0.99 0.03 1.12 0.02 1.13 0.03 1.11 0.03 1.17 0.03 1.25 0.02 1.27 0.02 1.24 0.02 1.35 0 1.38 0 0zm-24.18 56.99l0 -56.99 24.18 0 0 56.99 -12.09 12.09 -12.09 -12.09zm24.18 0l0 12.09 -12.09 0 12.09 -12.09zm-195.03 -12.09l182.94 0 0 24.18 -182.94 0 -12.09 -12.09 12.09 -12.09zm0 24.18l-12.09 0 0 -12.09 12.09 12.09zm12.09 -92.33l0 80.24 -24.18 0 0 -80.24 0 0 24.18 0zm201.38 -0.59l0 18.28 -24.18 0 0 -18.28 5.36 -10.05 18.82 10.05zm-24.18 0l0 -6.46 5.36 -3.59 -5.36 10.05zm44.71 -16.35l0 24.18 0 0 -1.61 -0.01 -1.57 -0.01 -1.51 -0.03 -1.42 -0.03 -1.37 -0.04 -1.28 -0.04 -1.24 -0.04 -1.19 -0.04 -1.1 -0.04 -1.06 -0.03 -1.01 -0.03 -0.87 -0.02 -0.82 0 -0.84 0.01 -0.74 0.02 -0.66 0.03 -0.68 0.04 -0.52 0.04 -0.52 0.07 -0.48 0.06 -0.41 0.08 -0.49 0.11 -0.35 0.08 -0.38 0.12 -0.4 0.13 -0.41 0.16 -0.41 0.17 -0.43 0.21 -0.47 0.24 -0.49 0.28 -0.58 0.35 -0.58 0.38 -13.46 -20.1 1.2 -0.78 1.18 -0.71 1.23 -0.7 1.25 -0.64 1.25 -0.59 1.25 -0.53 1.25 -0.48 1.26 -0.43 1.28 -0.38 1.31 -0.34 1.19 -0.25 1.27 -0.24 1.24 -0.18 1.22 -0.15 1.24 -0.1 1.12 -0.08 1.2 -0.05 1.14 -0.02 1.1 -0.01 1.18 0 1.21 0.02 1.11 0.03 1.14 0.03 1.18 0.04 1.15 0.04 1.22 0.04 1.24 0.04 1.27 0.04 1.3 0.03 1.33 0.03 1.39 0.01 1.45 0.01 0 0zm47.03 20.45l-17.48 -16.72 8.74 20.45 -1.2 0 -1.19 0 -1.2 0 -1.2 0 -1.19 0 -1.2 0 -1.19 0 -1.2 0 -1.2 0 -1.19 0 -1.2 0 -1.2 0 -1.19 0 -1.2 0 -1.2 0 -1.19 0 -1.2 0 -1.2 0 -1.2 0 -1.19 0 -1.2 0 -1.2 0 -1.19 0 -1.2 0 -1.2 0 -1.19 0 -1.2 0 -1.19 0 -1.2 0 -1.2 0 -1.19 0 -1.2 0 0 -24.18 1.2 0 1.19 0 1.2 0 1.2 0 1.19 0 1.2 0 1.19 0 1.2 0 1.2 0 1.19 0 1.2 0 1.2 0 1.19 0 1.2 0 1.2 0 1.2 0 1.19 0 1.2 0 1.2 0 1.19 0 1.2 0 1.2 0 1.19 0 1.2 0 1.2 0 1.19 0 1.2 0 1.19 0 1.2 0 1.2 0 1.19 0 1.2 0 8.74 20.45zm-8.74 -20.45l28.29 0 -19.55 20.45 -8.74 -20.45zm-35.69 31.92l26.95 -28.19 17.48 16.72 -26.95 28.19 -0.24 0.25 -17.24 -16.97zm17.48 16.72l-0.22 0.23 -0.02 0.02 0.24 -0.25zm-60.86 26.09l43.62 -43.06 17 17.22 -43.62 43.06 -20.59 -8.53 3.59 -8.69zm17 17.22l-20.39 20.13 -0.2 -28.66 20.59 8.53zm3.25 -57.4l0.34 48.71 -24.18 0.16 -0.34 -48.71 0 -0.08 24.18 -0.08zm-24.18 0.16l0 0 0 -0.08 0 0.08z"/>
   </g>
  </g>
 </g>
</svg>
